# xmcd
#
# Track frame offsets:
#	150
#	10574
#	24224
#	39299
#	54929
#	72704
#	88101
#	98268
#	114912
#	127587
#	137535
#	153473
#	168026
#	185806
#	198993
#	222918
#	231093
#	246645
#	258963
#	277077
#
# Disc length: 3870 seconds
#
# Revision: 1
# Processed by: cddbd v1.5.2PL0 Copyright (c) Steve Scherf et al.
# Submitted via: audiograbber 1.83.01
#
DISCID=030f1c14
DTITLE=Various Artist - 101 Pub Songs 04_05
DYEAR=2012
DGENRE=Celtic
TTITLE0=Liam Clancy - Rocky Road To Dublin
TTITLE1=Patsy Watchorn - Whiskey On A Sunday
TTITLE2=Na Fianna - Red Haired Mary
TTITLE3=Sean Dunphy - Isle Of Innisfree
TTITLE4=The Dublin City Ramblers - My Irish Molly
TTITLE5=The Jollybeggarmen - Only Our Rivers Run Free
TTITLE6=Jim McCann - Follow Me Up To Carlow
TTITLE7=Dolores Keane - My Own Dear Galway Bay
TTITLE8=Danny Doyle - Step It Out Mary
TTITLE9=Barleycorn - God Save Ireland
TTITLE10=Derek McCormick - Come Back Paddy Reilly
TTITLE11=The Wolf Tones - Come To The Bower
TTITLE12=Sean Dunphy - Limerick You're A Lady
TTITLE13=The Kilkennys - Galway Girl
TTITLE14=The Jollybeggarmen - Lannigan's Ball
TTITLE15=The Dublin City Ramblers - Waxies Dargle
TTITLE16=Brendan Bowyer - The West's Awake
TTITLE17=Johnny McEvoy - Slievenamon
TTITLE18=Barleycorn - If We Only Had Old Ireland
TTITLE19=Finbar Furey - New York Girl
EXTD=
EXTT0=
EXTT1=
EXTT2=
EXTT3=
EXTT4=
EXTT5=
EXTT6=
EXTT7=
EXTT8=
EXTT9=
EXTT10=
EXTT11=
EXTT12=
EXTT13=
EXTT14=
EXTT15=
EXTT16=
EXTT17=
EXTT18=
EXTT19=
PLAYORDER=
